<mxfile host="app.diagrams.net" modified="2023-10-26T18:06:37.263Z" agent="Mozilla/5.0 (Windows NT 10.0; Win64; x64) AppleWebKit/537.36 (KHTML, like Gecko) Chrome/118.0.0.0 Safari/537.36" etag="tAxwX19v-878PXZ0CtLE" version="22.0.8" type="github">
  <diagram name="PÃ¡gina-1" id="PSO0Zo-g7LU9fuRycYlr">
    <mxGraphModel dx="1434" dy="802" grid="1" gridSize="10" guides="1" tooltips="1" connect="1" arrows="1" fold="1" page="1" pageScale="1" pageWidth="827" pageHeight="1169" math="0" shadow="0">
      <root>
        <mxCell id="0" />
        <mxCell id="1" parent="0" />
        <mxCell id="oNb0JF1Szskd89Laf4qT-1" value="Usuario" style="rounded=0;whiteSpace=wrap;html=1;labelBackgroundColor=none;fillColor=#F2CC8F;strokeColor=#E07A5F;fontColor=#393C56;" parent="1" vertex="1">
          <mxGeometry x="185" y="30" width="120" height="60" as="geometry" />
        </mxCell>
        <mxCell id="oNb0JF1Szskd89Laf4qT-2" value="usuario_id" style="ellipse;whiteSpace=wrap;html=1;labelBackgroundColor=none;fillColor=#F2CC8F;strokeColor=#E07A5F;fontColor=#393C56;" parent="1" vertex="1">
          <mxGeometry x="80" y="60" width="80" height="30" as="geometry" />
        </mxCell>
        <mxCell id="oNb0JF1Szskd89Laf4qT-3" value="nombre" style="ellipse;whiteSpace=wrap;html=1;labelBackgroundColor=none;fillColor=#F2CC8F;strokeColor=#E07A5F;fontColor=#393C56;" parent="1" vertex="1">
          <mxGeometry x="110" y="135" width="80" height="35" as="geometry" />
        </mxCell>
        <mxCell id="oNb0JF1Szskd89Laf4qT-4" value="apellido" style="ellipse;whiteSpace=wrap;html=1;labelBackgroundColor=none;fillColor=#F2CC8F;strokeColor=#E07A5F;fontColor=#393C56;" parent="1" vertex="1">
          <mxGeometry x="210" y="137.5" width="70" height="35" as="geometry" />
        </mxCell>
        <mxCell id="oNb0JF1Szskd89Laf4qT-5" value="mail" style="ellipse;whiteSpace=wrap;html=1;labelBackgroundColor=none;fillColor=#F2CC8F;strokeColor=#E07A5F;fontColor=#393C56;" parent="1" vertex="1">
          <mxGeometry x="300" y="140" width="80" height="30" as="geometry" />
        </mxCell>
        <mxCell id="oNb0JF1Szskd89Laf4qT-13" value="password" style="ellipse;whiteSpace=wrap;html=1;labelBackgroundColor=none;fillColor=#F2CC8F;strokeColor=#E07A5F;fontColor=#393C56;" parent="1" vertex="1">
          <mxGeometry x="320" y="90" width="80" height="30" as="geometry" />
        </mxCell>
        <mxCell id="_4HdgpI9hiV9UOKw9jU4-4" value="carro" style="rounded=0;whiteSpace=wrap;html=1;strokeColor=#E07A5F;fontColor=#393C56;fillColor=#F2CC8F;" vertex="1" parent="1">
          <mxGeometry x="640" y="50" width="120" height="60" as="geometry" />
        </mxCell>
        <mxCell id="_4HdgpI9hiV9UOKw9jU4-6" value="monto" style="ellipse;whiteSpace=wrap;html=1;labelBackgroundColor=none;fillColor=#F2CC8F;strokeColor=#E07A5F;fontColor=#393C56;" vertex="1" parent="1">
          <mxGeometry x="680" y="142.5" width="80" height="30" as="geometry" />
        </mxCell>
        <mxCell id="_4HdgpI9hiV9UOKw9jU4-7" value="cantidad" style="ellipse;whiteSpace=wrap;html=1;labelBackgroundColor=none;fillColor=#F2CC8F;strokeColor=#E07A5F;fontColor=#393C56;" vertex="1" parent="1">
          <mxGeometry x="780" y="140" width="80" height="30" as="geometry" />
        </mxCell>
        <mxCell id="_4HdgpI9hiV9UOKw9jU4-9" value="id_carrito" style="ellipse;whiteSpace=wrap;html=1;labelBackgroundColor=none;fillColor=#F2CC8F;strokeColor=#E07A5F;fontColor=#393C56;" vertex="1" parent="1">
          <mxGeometry x="550" y="135" width="80" height="30" as="geometry" />
        </mxCell>
        <mxCell id="_4HdgpI9hiV9UOKw9jU4-18" value="Administracion" style="rounded=0;whiteSpace=wrap;html=1;strokeColor=#E07A5F;fontColor=#393C56;fillColor=#F2CC8F;" vertex="1" parent="1">
          <mxGeometry x="150" y="260" width="120" height="60" as="geometry" />
        </mxCell>
        <mxCell id="_4HdgpI9hiV9UOKw9jU4-20" value="ID_admin" style="ellipse;whiteSpace=wrap;html=1;labelBackgroundColor=none;fillColor=#F2CC8F;strokeColor=#E07A5F;fontColor=#393C56;" vertex="1" parent="1">
          <mxGeometry x="120" y="340" width="80" height="30" as="geometry" />
        </mxCell>
        <mxCell id="_4HdgpI9hiV9UOKw9jU4-21" value="Email" style="ellipse;whiteSpace=wrap;html=1;labelBackgroundColor=none;fillColor=#F2CC8F;strokeColor=#E07A5F;fontColor=#393C56;" vertex="1" parent="1">
          <mxGeometry x="225" y="340" width="80" height="30" as="geometry" />
        </mxCell>
        <mxCell id="_4HdgpI9hiV9UOKw9jU4-28" value="Producto" style="rounded=0;whiteSpace=wrap;html=1;strokeColor=#E07A5F;fontColor=#393C56;fillColor=#F2CC8F;" vertex="1" parent="1">
          <mxGeometry x="500" y="260" width="110" height="60" as="geometry" />
        </mxCell>
        <mxCell id="_4HdgpI9hiV9UOKw9jU4-35" value="precio&amp;nbsp;" style="ellipse;whiteSpace=wrap;html=1;labelBackgroundColor=none;fillColor=#F2CC8F;strokeColor=#E07A5F;fontColor=#393C56;" vertex="1" parent="1">
          <mxGeometry x="460" y="360" width="80" height="30" as="geometry" />
        </mxCell>
        <mxCell id="_4HdgpI9hiV9UOKw9jU4-37" value="nombre" style="ellipse;whiteSpace=wrap;html=1;labelBackgroundColor=none;fillColor=#F2CC8F;strokeColor=#E07A5F;fontColor=#393C56;" vertex="1" parent="1">
          <mxGeometry x="650" y="360" width="80" height="30" as="geometry" />
        </mxCell>
        <mxCell id="_4HdgpI9hiV9UOKw9jU4-39" value="imagen" style="ellipse;whiteSpace=wrap;html=1;labelBackgroundColor=none;fillColor=#F2CC8F;strokeColor=#E07A5F;fontColor=#393C56;" vertex="1" parent="1">
          <mxGeometry x="630" y="300" width="80" height="30" as="geometry" />
        </mxCell>
        <mxCell id="_4HdgpI9hiV9UOKw9jU4-42" value="cantidad" style="ellipse;whiteSpace=wrap;html=1;labelBackgroundColor=none;fillColor=#F2CC8F;strokeColor=#E07A5F;fontColor=#393C56;" vertex="1" parent="1">
          <mxGeometry x="550" y="360" width="80" height="30" as="geometry" />
        </mxCell>
        <mxCell id="_4HdgpI9hiV9UOKw9jU4-44" value="Pago" style="rounded=0;whiteSpace=wrap;html=1;strokeColor=#E07A5F;fontColor=#393C56;fillColor=#F2CC8F;" vertex="1" parent="1">
          <mxGeometry x="920" y="200" width="120" height="60" as="geometry" />
        </mxCell>
        <mxCell id="_4HdgpI9hiV9UOKw9jU4-46" value="total" style="ellipse;whiteSpace=wrap;html=1;labelBackgroundColor=none;fillColor=#F2CC8F;strokeColor=#E07A5F;fontColor=#393C56;" vertex="1" parent="1">
          <mxGeometry x="980" y="300" width="80" height="30" as="geometry" />
        </mxCell>
        <mxCell id="_4HdgpI9hiV9UOKw9jU4-47" value="id_pago" style="ellipse;whiteSpace=wrap;html=1;labelBackgroundColor=none;fillColor=#F2CC8F;strokeColor=#E07A5F;fontColor=#393C56;" vertex="1" parent="1">
          <mxGeometry x="880" y="300" width="80" height="30" as="geometry" />
        </mxCell>
        <mxCell id="_4HdgpI9hiV9UOKw9jU4-48" value="fecha" style="ellipse;whiteSpace=wrap;html=1;labelBackgroundColor=none;fillColor=#F2CC8F;strokeColor=#E07A5F;fontColor=#393C56;" vertex="1" parent="1">
          <mxGeometry x="1090" y="300" width="80" height="30" as="geometry" />
        </mxCell>
        <mxCell id="_4HdgpI9hiV9UOKw9jU4-53" value="confirmacion" style="ellipse;whiteSpace=wrap;html=1;labelBackgroundColor=none;fillColor=#F2CC8F;strokeColor=#E07A5F;fontColor=#393C56;" vertex="1" parent="1">
          <mxGeometry x="790" y="300" width="80" height="30" as="geometry" />
        </mxCell>
        <mxCell id="_4HdgpI9hiV9UOKw9jU4-34" value="id_producto" style="ellipse;whiteSpace=wrap;html=1;labelBackgroundColor=none;fillColor=#F2CC8F;strokeColor=#E07A5F;fontColor=#393C56;" vertex="1" parent="1">
          <mxGeometry x="410" y="290" width="80" height="30" as="geometry" />
        </mxCell>
        <mxCell id="_4HdgpI9hiV9UOKw9jU4-62" value="" style="endArrow=classic;html=1;rounded=0;strokeColor=#E07A5F;fontColor=#393C56;fillColor=#F2CC8F;entryX=0;entryY=0.5;entryDx=0;entryDy=0;" edge="1" parent="1" target="_4HdgpI9hiV9UOKw9jU4-4">
          <mxGeometry width="50" height="50" relative="1" as="geometry">
            <mxPoint x="305" y="50" as="sourcePoint" />
            <mxPoint x="630" y="80" as="targetPoint" />
          </mxGeometry>
        </mxCell>
        <mxCell id="_4HdgpI9hiV9UOKw9jU4-66" value="" style="endArrow=classic;html=1;rounded=0;entryX=0.5;entryY=0;entryDx=0;entryDy=0;labelBackgroundColor=none;strokeColor=#E07A5F;fontColor=default;exitX=1;exitY=0.5;exitDx=0;exitDy=0;" edge="1" parent="1" source="_4HdgpI9hiV9UOKw9jU4-4" target="_4HdgpI9hiV9UOKw9jU4-44">
          <mxGeometry width="50" height="50" relative="1" as="geometry">
            <mxPoint x="887" y="80" as="sourcePoint" />
            <mxPoint x="827" y="120" as="targetPoint" />
          </mxGeometry>
        </mxCell>
        <mxCell id="_4HdgpI9hiV9UOKw9jU4-67" value="" style="endArrow=classic;html=1;rounded=0;entryX=0;entryY=0.25;entryDx=0;entryDy=0;labelBackgroundColor=none;strokeColor=#E07A5F;fontColor=default;" edge="1" parent="1" source="_4HdgpI9hiV9UOKw9jU4-18" target="_4HdgpI9hiV9UOKw9jU4-28">
          <mxGeometry width="50" height="50" relative="1" as="geometry">
            <mxPoint x="290" y="280" as="sourcePoint" />
            <mxPoint x="510" y="400" as="targetPoint" />
          </mxGeometry>
        </mxCell>
        <mxCell id="_4HdgpI9hiV9UOKw9jU4-68" value="" style="endArrow=classic;html=1;rounded=0;entryX=0.5;entryY=1;entryDx=0;entryDy=0;labelBackgroundColor=none;strokeColor=#E07A5F;fontColor=default;" edge="1" parent="1" source="_4HdgpI9hiV9UOKw9jU4-28" target="_4HdgpI9hiV9UOKw9jU4-4">
          <mxGeometry width="50" height="50" relative="1" as="geometry">
            <mxPoint x="500" y="210" as="sourcePoint" />
            <mxPoint x="720" y="330" as="targetPoint" />
          </mxGeometry>
        </mxCell>
        <mxCell id="_4HdgpI9hiV9UOKw9jU4-78" value="1:N" style="text;strokeColor=none;fillColor=none;spacingLeft=4;spacingRight=4;overflow=hidden;rotatable=0;points=[[0,0.5],[1,0.5]];portConstraint=eastwest;fontSize=12;whiteSpace=wrap;html=1;fontColor=#393C56;" vertex="1" parent="1">
          <mxGeometry x="410" y="30" width="40" height="30" as="geometry" />
        </mxCell>
        <mxCell id="_4HdgpI9hiV9UOKw9jU4-79" value="1:N" style="text;strokeColor=none;fillColor=none;spacingLeft=4;spacingRight=4;overflow=hidden;rotatable=0;points=[[0,0.5],[1,0.5]];portConstraint=eastwest;fontSize=12;whiteSpace=wrap;html=1;fontColor=#393C56;" vertex="1" parent="1">
          <mxGeometry x="290" y="250" width="40" height="30" as="geometry" />
        </mxCell>
        <mxCell id="_4HdgpI9hiV9UOKw9jU4-80" value="1:N" style="text;strokeColor=none;fillColor=none;spacingLeft=4;spacingRight=4;overflow=hidden;rotatable=0;points=[[0,0.5],[1,0.5]];portConstraint=eastwest;fontSize=12;whiteSpace=wrap;html=1;fontColor=#393C56;" vertex="1" parent="1">
          <mxGeometry x="620" y="215" width="40" height="30" as="geometry" />
        </mxCell>
        <mxCell id="_4HdgpI9hiV9UOKw9jU4-81" value="N:1" style="text;strokeColor=none;fillColor=none;spacingLeft=4;spacingRight=4;overflow=hidden;rotatable=0;points=[[0,0.5],[1,0.5]];portConstraint=eastwest;fontSize=12;whiteSpace=wrap;html=1;fontColor=#393C56;" vertex="1" parent="1">
          <mxGeometry x="920" y="137.5" width="40" height="30" as="geometry" />
        </mxCell>
        <mxCell id="_4HdgpI9hiV9UOKw9jU4-82" value="" style="endArrow=classic;html=1;rounded=0;strokeColor=#E07A5F;fontColor=#393C56;fillColor=#F2CC8F;entryX=0;entryY=0.75;entryDx=0;entryDy=0;exitX=1;exitY=0.5;exitDx=0;exitDy=0;" edge="1" parent="1" source="_4HdgpI9hiV9UOKw9jU4-28" target="_4HdgpI9hiV9UOKw9jU4-44">
          <mxGeometry width="50" height="50" relative="1" as="geometry">
            <mxPoint x="710" y="270" as="sourcePoint" />
            <mxPoint x="1045" y="300" as="targetPoint" />
          </mxGeometry>
        </mxCell>
        <mxCell id="_4HdgpI9hiV9UOKw9jU4-84" value="1:N" style="text;strokeColor=none;fillColor=none;spacingLeft=4;spacingRight=4;overflow=hidden;rotatable=0;points=[[0,0.5],[1,0.5]];portConstraint=eastwest;fontSize=12;whiteSpace=wrap;html=1;fontColor=#393C56;" vertex="1" parent="1">
          <mxGeometry x="700" y="240" width="40" height="30" as="geometry" />
        </mxCell>
        <mxCell id="_4HdgpI9hiV9UOKw9jU4-85" value="actu..catalog." style="ellipse;whiteSpace=wrap;html=1;labelBackgroundColor=none;fillColor=#F2CC8F;strokeColor=#E07A5F;fontColor=#393C56;" vertex="1" parent="1">
          <mxGeometry x="50" y="290" width="80" height="30" as="geometry" />
        </mxCell>
      </root>
    </mxGraphModel>
  </diagram>
</mxfile>
